<mxfile host="app.diagrams.net" modified="2022-03-18T21:46:32.262Z" agent="5.0 (Windows NT 10.0; Win64; x64) AppleWebKit/537.36 (KHTML, like Gecko) Chrome/99.0.4844.74 Safari/537.36" etag="eZ3bocdLFVNYbVxAJLM7" version="16.5.3" type="github">
  <diagram id="xMlb-xQJMwrSr8g3-eFz" name="Page-1">
    <mxGraphModel dx="1108" dy="450" grid="1" gridSize="10" guides="1" tooltips="1" connect="1" arrows="1" fold="1" page="1" pageScale="1" pageWidth="827" pageHeight="1169" math="0" shadow="0">
      <root>
        <mxCell id="0" />
        <mxCell id="1" parent="0" />
        <mxCell id="oCgAL6hbepG9MiINjAO_-7" value="" style="endArrow=classic;html=1;rounded=0;entryX=1;entryY=0.083;entryDx=0;entryDy=0;entryPerimeter=0;" edge="1" parent="1">
          <mxGeometry width="50" height="50" relative="1" as="geometry">
            <mxPoint x="320" y="35" as="sourcePoint" />
            <mxPoint x="165" y="70.00000000000001" as="targetPoint" />
          </mxGeometry>
        </mxCell>
        <mxCell id="oCgAL6hbepG9MiINjAO_-10" value="" style="endArrow=classic;html=1;rounded=0;" edge="1" parent="1">
          <mxGeometry width="50" height="50" relative="1" as="geometry">
            <mxPoint x="104.5" y="130" as="sourcePoint" />
            <mxPoint x="105" y="170" as="targetPoint" />
          </mxGeometry>
        </mxCell>
        <mxCell id="oCgAL6hbepG9MiINjAO_-12" value="" style="endArrow=classic;html=1;rounded=0;exitX=0.498;exitY=1;exitDx=0;exitDy=0;exitPerimeter=0;" edge="1" parent="1">
          <mxGeometry width="50" height="50" relative="1" as="geometry">
            <mxPoint x="379.5999999999999" y="40" as="sourcePoint" />
            <mxPoint x="379.5" y="120" as="targetPoint" />
          </mxGeometry>
        </mxCell>
        <mxCell id="oCgAL6hbepG9MiINjAO_-14" value="" style="endArrow=classic;html=1;rounded=0;" edge="1" parent="1">
          <mxGeometry width="50" height="50" relative="1" as="geometry">
            <mxPoint x="379.5" y="180" as="sourcePoint" />
            <mxPoint x="380" y="230" as="targetPoint" />
            <Array as="points" />
          </mxGeometry>
        </mxCell>
        <mxCell id="oCgAL6hbepG9MiINjAO_-17" value="" style="endArrow=classic;html=1;rounded=0;exitX=0.8;exitY=1;exitDx=0;exitDy=0;exitPerimeter=0;entryX=0.25;entryY=0;entryDx=0;entryDy=0;" edge="1" parent="1">
          <mxGeometry width="50" height="50" relative="1" as="geometry">
            <mxPoint x="440" y="40" as="sourcePoint" />
            <mxPoint x="540" y="120" as="targetPoint" />
          </mxGeometry>
        </mxCell>
        <mxCell id="oCgAL6hbepG9MiINjAO_-23" value="" style="endArrow=classic;html=1;rounded=0;" edge="1" parent="1">
          <mxGeometry width="50" height="50" relative="1" as="geometry">
            <mxPoint x="480" y="40" as="sourcePoint" />
            <mxPoint x="660" y="130" as="targetPoint" />
          </mxGeometry>
        </mxCell>
        <mxCell id="oCgAL6hbepG9MiINjAO_-24" value="Dados Bancarios" style="rounded=1;whiteSpace=wrap;html=1;" vertex="1" parent="1">
          <mxGeometry x="320" width="160" height="40" as="geometry" />
        </mxCell>
        <mxCell id="oCgAL6hbepG9MiINjAO_-25" value="Não encontrei nenhum cadastro por estar:" style="rounded=0;whiteSpace=wrap;html=1;" vertex="1" parent="1">
          <mxGeometry x="45" y="70" width="120" height="60" as="geometry" />
        </mxCell>
        <mxCell id="oCgAL6hbepG9MiINjAO_-26" value="Cancelado, Excluído, Aguardando Prova de Vida" style="rounded=0;whiteSpace=wrap;html=1;" vertex="1" parent="1">
          <mxGeometry x="45" y="170" width="120" height="60" as="geometry" />
        </mxCell>
        <mxCell id="oCgAL6hbepG9MiINjAO_-27" value="Aguardando Confirmação" style="rounded=0;whiteSpace=wrap;html=1;" vertex="1" parent="1">
          <mxGeometry x="320" y="120" width="120" height="60" as="geometry" />
        </mxCell>
        <mxCell id="oCgAL6hbepG9MiINjAO_-28" value="Reenvio do link" style="rounded=0;whiteSpace=wrap;html=1;" vertex="1" parent="1">
          <mxGeometry x="320" y="230" width="120" height="50" as="geometry" />
        </mxCell>
        <mxCell id="oCgAL6hbepG9MiINjAO_-29" value="Você possui u cadastro pendente aguarde 5 dias uteis" style="rounded=0;whiteSpace=wrap;html=1;" vertex="1" parent="1">
          <mxGeometry x="480" y="120" width="120" height="60" as="geometry" />
        </mxCell>
        <mxCell id="oCgAL6hbepG9MiINjAO_-31" value="" style="curved=1;endArrow=classic;html=1;rounded=0;entryX=0.5;entryY=1;entryDx=0;entryDy=0;exitX=1;exitY=0.5;exitDx=0;exitDy=0;" edge="1" parent="1" source="oCgAL6hbepG9MiINjAO_-28" target="oCgAL6hbepG9MiINjAO_-29">
          <mxGeometry width="50" height="50" relative="1" as="geometry">
            <mxPoint x="440" y="260" as="sourcePoint" />
            <mxPoint x="490" y="210" as="targetPoint" />
            <Array as="points">
              <mxPoint x="480" y="250" />
              <mxPoint x="540" y="210" />
            </Array>
          </mxGeometry>
        </mxCell>
        <mxCell id="oCgAL6hbepG9MiINjAO_-32" value="Sua conta está aprovada" style="rounded=0;whiteSpace=wrap;html=1;" vertex="1" parent="1">
          <mxGeometry x="660" y="130" width="120" height="50" as="geometry" />
        </mxCell>
        <mxCell id="oCgAL6hbepG9MiINjAO_-33" value="" style="endArrow=classic;html=1;rounded=0;" edge="1" parent="1">
          <mxGeometry width="50" height="50" relative="1" as="geometry">
            <mxPoint x="480" y="19.5" as="sourcePoint" />
            <mxPoint x="590" y="40" as="targetPoint" />
          </mxGeometry>
        </mxCell>
        <mxCell id="oCgAL6hbepG9MiINjAO_-34" value="Ajuda" style="rounded=0;whiteSpace=wrap;html=1;" vertex="1" parent="1">
          <mxGeometry x="590" y="20" width="80" height="50" as="geometry" />
        </mxCell>
        <mxCell id="oCgAL6hbepG9MiINjAO_-35" value="" style="endArrow=classic;html=1;rounded=0;exitX=1;exitY=0.5;exitDx=0;exitDy=0;" edge="1" parent="1" source="oCgAL6hbepG9MiINjAO_-34">
          <mxGeometry width="50" height="50" relative="1" as="geometry">
            <mxPoint x="675" y="44.5" as="sourcePoint" />
            <mxPoint x="720" y="44.5" as="targetPoint" />
          </mxGeometry>
        </mxCell>
        <mxCell id="oCgAL6hbepG9MiINjAO_-36" value="Fila" style="rounded=0;whiteSpace=wrap;html=1;" vertex="1" parent="1">
          <mxGeometry x="720" y="20" width="80" height="50" as="geometry" />
        </mxCell>
      </root>
    </mxGraphModel>
  </diagram>
</mxfile>
